<svg width="32" height="32" viewBox="0 0 32 32" fill="none" xmlns="http://www.w3.org/2000/svg">
<path d="M10.9511 24.1702L11.7365 26.2123C9.45287 26.6452 7.72012 28.6546 7.72012 31.0623V31.9998H28.2618V31.0623C28.2618 28.3398 26.0468 26.1248 23.3243 26.1248H23.0451L22.2933 24.1702H10.9511Z" fill="#583FBC"/>
<path d="M26.9288 15.5466V0H19.603L17.1882 2.41481C15.2029 0.84425 12.3802 0.694125 10.2308 2.11844L9.8111 2.3965L9.81104 4.74144L16.1703 11.299H18.7135L18.9916 10.8793C20.464 8.65706 20.2538 5.71537 18.531 3.72338L20.3796 1.875H25.0538V14.6943L26.9288 15.5466Z" fill="#583FBC"/>
<path d="M29.1159 18.6003L24.395 16.4544H12.8469L7.52564 11.9518C6.63227 11.1959 5.5237 10.7913 4.36652 10.7913C4.22864 10.7913 4.09014 10.797 3.9512 10.8086C2.64602 10.9173 1.46127 11.5279 0.615328 12.5277L0.00976562 13.2434L10.7073 22.2952H23.13L31.1627 25.9465L31.5506 25.093C32.6695 22.6317 31.5772 19.719 29.1159 18.6003Z" fill="#583FBC"/>
</svg>
