<svg width="32" height="32" viewBox="0 0 32 32" fill="none" xmlns="http://www.w3.org/2000/svg">
<path d="M21.2682 14.582C22.5239 12.8945 23.1875 10.8907 23.1875 8.78731V3.4375C23.1875 2.91975 22.7677 2.5 22.25 2.5C21.0654 2.5 20.0003 1.84175 19.4704 0.782188L19.3385 0.51825C19.1797 0.200625 18.8551 0 18.5 0H13.5C13.1449 0 12.8203 0.200625 12.6615 0.51825L12.5296 0.782188C11.9997 1.84175 10.9346 2.5 9.75 2.5C9.23225 2.5 8.8125 2.91975 8.8125 3.4375V8.78731C8.8125 10.8907 9.47612 12.8945 10.7317 14.5821C11.9874 16.2696 13.7159 17.4811 15.7306 18.0855C15.8184 18.1119 15.9092 18.1251 16 18.1251C16.0908 18.1251 16.1815 18.1119 16.2694 18.0855C18.2841 17.4811 20.0126 16.2696 21.2682 14.582ZM19.3146 7.95762L15.779 11.4931C15.5959 11.6762 15.3559 11.7677 15.1161 11.7677C14.8762 11.7677 14.6363 11.6762 14.4532 11.4931L12.6855 9.72538C12.3194 9.35931 12.3194 8.76569 12.6855 8.39956C13.0516 8.0335 13.6452 8.0335 14.0113 8.39956L15.1162 9.50444L17.9889 6.63181C18.3549 6.26569 18.9486 6.26569 19.3147 6.63181C19.6807 6.99794 19.6807 7.59156 19.3146 7.95762Z" fill="#583FBC"/>
<path d="M30.0723 8.56322C29.051 8.59128 28.25 9.45485 28.25 10.4765V18.25L24.7064 24.3432C24.5374 24.6338 24.2266 24.8126 23.8904 24.8126C23.1628 24.8126 22.7088 24.0241 23.074 23.3947L25.5395 19.1467C26.1612 18.07 25.7922 16.6933 24.7155 16.0717C23.6829 15.4754 22.3644 15.7879 21.7092 16.7842L18.1765 22.1556C17.5729 23.0734 17.2512 24.1479 17.2512 25.2465V31.0626C17.2512 31.5803 17.671 32.0001 18.1887 32.0001H27.9375C28.4552 32.0001 28.875 31.5803 28.875 31.0626V27.6251L32 20.125V10.4375C32 9.38447 31.1319 8.53422 30.0723 8.56322Z" fill="#583FBC"/>
<path d="M10.2909 16.7842C9.63563 15.788 8.31719 15.4755 7.2845 16.0717C6.20781 16.6933 5.83888 18.07 6.46056 19.1467L8.92606 23.3947C9.29131 24.0241 8.83725 24.8125 8.10969 24.8126C7.7735 24.8126 7.46269 24.6337 7.29369 24.3432L3.75 18.25V10.4765C3.75 9.45485 2.949 8.59128 1.92769 8.56322C0.868125 8.53422 0 9.38447 0 10.4375V20.125L3.125 27.6251V31.0626C3.125 31.5803 3.54475 32.0001 4.0625 32.0001H13.8113C14.3291 32.0001 14.7488 31.5803 14.7488 31.0626V25.2465C14.7488 24.1479 14.4271 23.0734 13.8235 22.1556L10.2909 16.7842Z" fill="#583FBC"/>
</svg>
