<svg width="30" height="34" viewBox="0 0 30 34" fill="none" xmlns="http://www.w3.org/2000/svg">
<path fill-rule="evenodd" clip-rule="evenodd" d="M14.5468 33.5228C14.7313 33.6192 14.9377 33.6683 15.1441 33.6666C15.3505 33.665 15.5552 33.6143 15.7414 33.5163L21.6879 30.3375C23.3742 29.4386 24.6947 28.4335 25.7249 27.2633C27.9649 24.7137 29.1881 21.4597 29.1663 18.1044L29.0958 7.03668C29.0891 5.76189 28.2518 4.62439 27.0135 4.2109L15.9512 0.499314C15.285 0.273775 14.5552 0.278678 13.9008 0.510755L2.88036 4.35472C1.64878 4.78456 0.826612 5.93023 0.833323 7.20665L0.903795 18.2662C0.925608 21.6264 2.19074 24.8657 4.46765 27.3891C5.50794 28.543 6.84019 29.5334 8.54494 30.4176L14.5468 33.5228ZM12.9726 20.5149C13.221 20.7536 13.5431 20.8712 13.8653 20.868C14.1874 20.8663 14.5079 20.7454 14.7529 20.5035L21.2514 14.0969C21.7396 13.6148 21.7346 12.8401 21.2413 12.3645C20.7463 11.8889 19.9493 11.8922 19.4611 12.3743L13.8468 17.9082L11.5481 15.6985C11.0531 15.223 10.2578 15.2279 9.76785 15.71C9.27958 16.1921 9.28461 16.9668 9.77959 17.4424L12.9726 20.5149Z" fill="#583FBC"/>
</svg>
