<svg width="32" height="32" viewBox="0 0 32 32" fill="none" xmlns="http://www.w3.org/2000/svg">
<g clip-path="url(#clip0_401_281)">
<path d="M22.4418 3.81279C22.0588 3.83184 21.6877 3.61382 21.5302 3.24102L20.9843 1.94804C20.7831 1.47148 21.0075 0.922651 21.485 0.721967C21.9626 0.521527 22.5126 0.744916 22.7138 1.22148L23.2597 2.51445C23.4609 2.99102 23.2368 3.53984 22.759 3.74028C22.6555 3.78399 22.548 3.80742 22.4418 3.81279Z" fill="#583FBC"/>
<path d="M26.2986 3.1076C26.1609 3.11444 26.0198 3.09124 25.8848 3.03362C25.408 2.83099 25.186 2.28143 25.3892 1.80584L25.9436 0.507008C26.1467 0.031421 26.6977 -0.190015 27.1746 0.0126221C27.6514 0.215015 27.8733 0.764821 27.6702 1.24041L27.1155 2.53924C26.97 2.88006 26.646 3.09027 26.2986 3.1076Z" fill="#583FBC"/>
<path d="M28.5187 6.23974C28.1325 6.25903 27.7587 6.03686 27.6037 5.65966C27.4071 5.18114 27.6366 4.63451 28.1161 4.43846L29.446 3.89452C29.9254 3.69847 30.4735 3.92723 30.6701 4.40575C30.8666 4.88402 30.6374 5.43066 30.1579 5.6267L28.8278 6.17065C28.7265 6.21215 28.6222 6.23437 28.5187 6.23974Z" fill="#583FBC"/>
<path d="M28.9534 10.9381C27.7844 7.83973 24.9434 5.82971 21.7151 5.8175C21.709 5.8175 21.7029 5.8175 21.6968 5.8175C20.0012 5.8175 18.7683 6.71253 17.6799 7.50232C16.853 8.10242 16.1382 8.62147 15.4036 8.6283C14.6692 8.62147 13.9541 8.10267 13.1274 7.50232C12.0391 6.71228 10.8061 5.8175 9.11058 5.8175C9.10448 5.8175 9.09837 5.8175 9.09227 5.8175C5.86399 5.82971 3.02267 7.83973 1.85373 10.9381C0.534387 14.4359 1.88107 17.2064 3.18356 19.8859C3.38132 20.2929 3.58591 20.714 3.77731 21.1303C4.07907 21.7865 4.37448 22.9648 4.68723 24.2121C5.42234 27.1449 6.25559 30.4692 8.1157 31.5644C8.75023 31.9379 9.47118 32.0334 10.2007 31.8403C12.1299 31.33 12.7834 29.1393 13.3599 27.2065C13.9709 25.1584 14.4143 23.9108 15.4038 23.8991C16.3931 23.9108 16.8367 25.1584 17.4475 27.2065C18.0242 29.1393 18.6775 31.33 20.6067 31.8403C20.8523 31.9052 21.0969 31.9377 21.3377 31.9377C21.8118 31.9377 22.271 31.8122 22.6917 31.5644C24.5518 30.4689 25.3853 27.1449 26.1204 24.2121C26.4329 22.9648 26.7283 21.7865 27.0301 21.1303C27.2215 20.7138 27.4261 20.2929 27.624 19.8857C28.9263 17.2064 30.273 14.4359 28.9534 10.9381ZM9.11375 11.4335C8.21605 11.4369 7.4719 11.9913 7.12278 12.9164C6.98118 13.2916 6.624 13.5228 6.24461 13.5228C6.13474 13.5228 6.02317 13.5036 5.91428 13.4625C5.42917 13.2804 5.18406 12.7406 5.36643 12.2567C5.99143 10.6007 7.42454 9.568 9.10667 9.56141H9.11033C9.62694 9.56141 10.0466 9.97816 10.0486 10.494C10.0505 11.0109 9.63206 11.4315 9.11375 11.4335Z" fill="#583FBC"/>
</g>
<defs>
<clipPath id="clip0_401_281">
<rect width="32" height="32" fill="white"/>
</clipPath>
</defs>
</svg>
